<svg width="72" height="72" viewBox="0 0 72 72" fill="none" xmlns="http://www.w3.org/2000/svg">
  <!-- Background -->
  <rect width="72" height="72" rx="12" fill="#0A192F"/>
  
  <!-- Gradient -->
  <defs>
    <linearGradient id="iconGradient72" x1="0%" y1="0%" x2="100%" y2="100%">
      <stop offset="0%" style="stop-color:#64FFDA;stop-opacity:1" />
      <stop offset="100%" style="stop-color:#4CAF50;stop-opacity:1" />
    </linearGradient>
  </defs>
  
  <!-- Main Icon -->
  <g transform="translate(12, 12)">
    <!-- Circle -->
    <circle cx="24" cy="24" r="22" stroke="url(#iconGradient72)" stroke-width="2" fill="none"/>
    
    <!-- "1C" Design -->
    <g fill="url(#iconGradient72)">
      <!-- "1" -->
      <rect x="14" y="12" width="3" height="16" rx="1.5"/>
      <rect x="11" y="12" width="6" height="3" rx="1.5"/>
      <rect x="11" y="25" width="9" height="3" rx="1.5"/>
      
      <!-- "C" -->
      <path d="M26 12 C32 12 36 16 36 24 C36 32 32 36 26 36 C24 36 22 35 21 34 L23 30 C24 31 25 31 26 31 C29 31 31 29 31 24 C31 19 29 17 26 17 C25 17 24 17 23 18 L21 14 C22 13 24 12 26 12 Z"/>
    </g>
  </g>
</svg>