<svg width="144" height="144" viewBox="0 0 144 144" fill="none" xmlns="http://www.w3.org/2000/svg">
  <!-- Background -->
  <rect width="144" height="144" rx="18" fill="#0A192F"/>
  
  <!-- Gradient -->
  <defs>
    <linearGradient id="bgGradient144" x1="0%" y1="0%" x2="100%" y2="100%">
      <stop offset="0%" style="stop-color:#1a365d;stop-opacity:1" />
      <stop offset="100%" style="stop-color:#0A192F;stop-opacity:1" />
    </linearGradient>
    <linearGradient id="iconGradient144" x1="0%" y1="0%" x2="100%" y2="100%">
      <stop offset="0%" style="stop-color:#64FFDA;stop-opacity:1" />
      <stop offset="100%" style="stop-color:#4CAF50;stop-opacity:1" />
    </linearGradient>
  </defs>
  
  <rect width="144" height="144" rx="18" fill="url(#bgGradient144)"/>
  
  <!-- Main Icon -->
  <g transform="translate(24, 24)">
    <!-- Circle -->
    <circle cx="48" cy="48" r="44" stroke="url(#iconGradient144)" stroke-width="3" fill="none"/>
    
    <!-- "1C" Design -->
    <g fill="url(#iconGradient144)">
      <!-- "1" -->
      <rect x="28" y="24" width="6" height="32" rx="3"/>
      <rect x="22" y="24" width="12" height="6" rx="3"/>
      <rect x="22" y="50" width="18" height="6" rx="3"/>
      
      <!-- "C" -->
      <path d="M52 24 C64 24 72 32 72 48 C72 64 64 72 52 72 C48 72 44 70 42 68 L46 60 C48 62 50 62 52 62 C58 62 62 58 62 48 C62 38 58 34 52 34 C50 34 48 34 46 36 L42 28 C44 26 48 24 52 24 Z"/>
    </g>
    
    <!-- Accent dots -->
    <circle cx="16" cy="16" r="2" fill="#64FFDA" opacity="0.7"/>
    <circle cx="80" cy="16" r="2" fill="#64FFDA" opacity="0.7"/>
    <circle cx="16" cy="80" r="2" fill="#64FFDA" opacity="0.7"/>
    <circle cx="80" cy="80" r="2" fill="#64FFDA" opacity="0.7"/>
  </g>
  
  <!-- Bottom Text -->
  <text x="72" y="128" text-anchor="middle" fill="#64FFDA" font-family="Arial, sans-serif" font-size="10" font-weight="bold">1CRYPTEN</text>
</svg>